<mxfile host="app.diagrams.net" modified="2022-06-04T16:10:15.460Z" agent="5.0 (Windows NT 10.0; Win64; x64) AppleWebKit/537.36 (KHTML, like Gecko) Chrome/102.0.5005.63 Safari/537.36 Edg/102.0.1245.30" etag="bM3XLa3y-yOTG-6mA_Zv" version="18.2.0" type="github">
  <diagram name="Page-1" id="edf60f1a-56cd-e834-aa8a-f176f3a09ee4">
    <mxGraphModel dx="7490" dy="2855" grid="1" gridSize="10" guides="1" tooltips="1" connect="1" arrows="1" fold="1" page="1" pageScale="1" pageWidth="1100" pageHeight="850" background="none" math="0" shadow="0">
      <root>
        <mxCell id="0" />
        <mxCell id="1" parent="0" />
        <mxCell id="60e70716793133e9-32" style="edgeStyle=orthogonalEdgeStyle;rounded=0;html=1;labelBackgroundColor=none;startSize=5;endArrow=classicThin;endFill=1;endSize=5;jettySize=auto;orthogonalLoop=1;strokeWidth=1;fontFamily=Verdana;fontSize=8" parent="1" source="60e70716793133e9-4" edge="1">
          <mxGeometry relative="1" as="geometry">
            <mxPoint x="250" y="220" as="targetPoint" />
          </mxGeometry>
        </mxCell>
        <mxCell id="60e70716793133e9-4" value="main()" style="rounded=0;whiteSpace=wrap;html=1;shadow=1;labelBackgroundColor=none;strokeWidth=1;fontFamily=Verdana;fontSize=8;align=center;" parent="1" vertex="1">
          <mxGeometry x="190" y="110" width="120" height="60" as="geometry" />
        </mxCell>
        <mxCell id="h8E89t3zpJ7iG9NS3GkZ-6" value="" style="edgeStyle=orthogonalEdgeStyle;rounded=0;orthogonalLoop=1;jettySize=auto;html=1;" edge="1" parent="1" source="h8E89t3zpJ7iG9NS3GkZ-4" target="h8E89t3zpJ7iG9NS3GkZ-5">
          <mxGeometry relative="1" as="geometry" />
        </mxCell>
        <mxCell id="h8E89t3zpJ7iG9NS3GkZ-4" value="showStartScreen()" style="whiteSpace=wrap;html=1;rounded=0;sketch=0;" vertex="1" parent="1">
          <mxGeometry x="190" y="220" width="120" height="60" as="geometry" />
        </mxCell>
        <mxCell id="h8E89t3zpJ7iG9NS3GkZ-8" value="" style="edgeStyle=orthogonalEdgeStyle;rounded=0;orthogonalLoop=1;jettySize=auto;html=1;" edge="1" parent="1" source="h8E89t3zpJ7iG9NS3GkZ-5" target="h8E89t3zpJ7iG9NS3GkZ-7">
          <mxGeometry relative="1" as="geometry" />
        </mxCell>
        <mxCell id="h8E89t3zpJ7iG9NS3GkZ-5" value="drawPressKeyMsg()" style="whiteSpace=wrap;html=1;rounded=0;sketch=0;" vertex="1" parent="1">
          <mxGeometry x="390" y="220" width="120" height="60" as="geometry" />
        </mxCell>
        <mxCell id="h8E89t3zpJ7iG9NS3GkZ-10" value="" style="edgeStyle=orthogonalEdgeStyle;rounded=0;orthogonalLoop=1;jettySize=auto;html=1;" edge="1" parent="1" source="h8E89t3zpJ7iG9NS3GkZ-7" target="h8E89t3zpJ7iG9NS3GkZ-9">
          <mxGeometry relative="1" as="geometry">
            <Array as="points">
              <mxPoint x="700" y="310" />
              <mxPoint x="250" y="310" />
            </Array>
          </mxGeometry>
        </mxCell>
        <mxCell id="h8E89t3zpJ7iG9NS3GkZ-7" value="CheckforKeyPress()==True" style="rhombus;whiteSpace=wrap;html=1;rounded=0;sketch=0;" vertex="1" parent="1">
          <mxGeometry x="610" y="210" width="180" height="80" as="geometry" />
        </mxCell>
        <mxCell id="h8E89t3zpJ7iG9NS3GkZ-12" value="" style="edgeStyle=orthogonalEdgeStyle;rounded=0;orthogonalLoop=1;jettySize=auto;html=1;" edge="1" parent="1" source="h8E89t3zpJ7iG9NS3GkZ-9" target="h8E89t3zpJ7iG9NS3GkZ-11">
          <mxGeometry relative="1" as="geometry" />
        </mxCell>
        <mxCell id="h8E89t3zpJ7iG9NS3GkZ-9" value="runGame()" style="whiteSpace=wrap;html=1;rounded=0;sketch=0;" vertex="1" parent="1">
          <mxGeometry x="190" y="330" width="120" height="60" as="geometry" />
        </mxCell>
        <mxCell id="h8E89t3zpJ7iG9NS3GkZ-17" value="" style="edgeStyle=orthogonalEdgeStyle;rounded=0;orthogonalLoop=1;jettySize=auto;html=1;" edge="1" parent="1" source="h8E89t3zpJ7iG9NS3GkZ-11" target="h8E89t3zpJ7iG9NS3GkZ-16">
          <mxGeometry relative="1" as="geometry" />
        </mxCell>
        <mxCell id="h8E89t3zpJ7iG9NS3GkZ-11" value="getRandomLocation" style="whiteSpace=wrap;html=1;rounded=0;sketch=0;" vertex="1" parent="1">
          <mxGeometry x="190" y="470" width="120" height="60" as="geometry" />
        </mxCell>
        <mxCell id="h8E89t3zpJ7iG9NS3GkZ-19" value="" style="edgeStyle=orthogonalEdgeStyle;rounded=0;orthogonalLoop=1;jettySize=auto;html=1;" edge="1" parent="1" source="h8E89t3zpJ7iG9NS3GkZ-16" target="h8E89t3zpJ7iG9NS3GkZ-18">
          <mxGeometry relative="1" as="geometry" />
        </mxCell>
        <mxCell id="h8E89t3zpJ7iG9NS3GkZ-21" value="" style="edgeStyle=orthogonalEdgeStyle;rounded=0;orthogonalLoop=1;jettySize=auto;html=1;" edge="1" parent="1" source="h8E89t3zpJ7iG9NS3GkZ-16" target="h8E89t3zpJ7iG9NS3GkZ-20">
          <mxGeometry relative="1" as="geometry" />
        </mxCell>
        <mxCell id="h8E89t3zpJ7iG9NS3GkZ-16" value="Esc 입력" style="rhombus;whiteSpace=wrap;html=1;rounded=0;sketch=0;" vertex="1" parent="1">
          <mxGeometry x="210" y="600" width="80" height="80" as="geometry" />
        </mxCell>
        <mxCell id="h8E89t3zpJ7iG9NS3GkZ-23" value="" style="edgeStyle=orthogonalEdgeStyle;rounded=0;orthogonalLoop=1;jettySize=auto;html=1;" edge="1" parent="1" source="h8E89t3zpJ7iG9NS3GkZ-18" target="h8E89t3zpJ7iG9NS3GkZ-22">
          <mxGeometry relative="1" as="geometry" />
        </mxCell>
        <mxCell id="h8E89t3zpJ7iG9NS3GkZ-27" value="" style="edgeStyle=orthogonalEdgeStyle;rounded=0;orthogonalLoop=1;jettySize=auto;html=1;" edge="1" parent="1" source="h8E89t3zpJ7iG9NS3GkZ-18" target="h8E89t3zpJ7iG9NS3GkZ-26">
          <mxGeometry relative="1" as="geometry" />
        </mxCell>
        <mxCell id="h8E89t3zpJ7iG9NS3GkZ-18" value="p 입력" style="rhombus;whiteSpace=wrap;html=1;rounded=0;sketch=0;" vertex="1" parent="1">
          <mxGeometry x="210" y="760" width="80" height="80" as="geometry" />
        </mxCell>
        <mxCell id="h8E89t3zpJ7iG9NS3GkZ-20" value="terminate()" style="whiteSpace=wrap;html=1;rounded=0;sketch=0;" vertex="1" parent="1">
          <mxGeometry x="350" y="610" width="120" height="60" as="geometry" />
        </mxCell>
        <mxCell id="h8E89t3zpJ7iG9NS3GkZ-25" value="" style="edgeStyle=orthogonalEdgeStyle;rounded=0;orthogonalLoop=1;jettySize=auto;html=1;" edge="1" parent="1" source="h8E89t3zpJ7iG9NS3GkZ-22" target="h8E89t3zpJ7iG9NS3GkZ-24">
          <mxGeometry relative="1" as="geometry" />
        </mxCell>
        <mxCell id="h8E89t3zpJ7iG9NS3GkZ-22" value="showTextScreen()&lt;br&gt;makeTextObjs(Text)&lt;br&gt;makeTextObjs(&#39;Press ~~)" style="whiteSpace=wrap;html=1;rounded=0;sketch=0;" vertex="1" parent="1">
          <mxGeometry x="350" y="770" width="120" height="60" as="geometry" />
        </mxCell>
        <mxCell id="h8E89t3zpJ7iG9NS3GkZ-24" value="checkForKeyPress()!=None" style="rhombus;whiteSpace=wrap;html=1;rounded=0;sketch=0;" vertex="1" parent="1">
          <mxGeometry x="570" y="760" width="170" height="80" as="geometry" />
        </mxCell>
        <mxCell id="h8E89t3zpJ7iG9NS3GkZ-29" value="" style="edgeStyle=orthogonalEdgeStyle;rounded=0;orthogonalLoop=1;jettySize=auto;html=1;" edge="1" parent="1" source="h8E89t3zpJ7iG9NS3GkZ-26" target="h8E89t3zpJ7iG9NS3GkZ-28">
          <mxGeometry relative="1" as="geometry" />
        </mxCell>
        <mxCell id="h8E89t3zpJ7iG9NS3GkZ-35" value="" style="edgeStyle=orthogonalEdgeStyle;rounded=0;orthogonalLoop=1;jettySize=auto;html=1;" edge="1" parent="1" source="h8E89t3zpJ7iG9NS3GkZ-26" target="h8E89t3zpJ7iG9NS3GkZ-34">
          <mxGeometry relative="1" as="geometry" />
        </mxCell>
        <mxCell id="h8E89t3zpJ7iG9NS3GkZ-26" value="&lt;pre style=&quot;box-sizing: unset; line-height: 16.25px; padding: 0 var(--jp-code-padding); color: rgb(33, 33, 33); font-size: 13px; text-align: start;&quot;&gt;&lt;span style=&quot;box-sizing: unset; color: var(--jp-mirror-editor-keyword-color); font-weight: bold;&quot; class=&quot;k&quot;&gt;if&lt;/span&gt; &lt;span style=&quot;box-sizing: unset;&quot; class=&quot;n&quot;&gt;wormCoords&lt;/span&gt;&lt;span style=&quot;box-sizing: unset; color: var(--jp-mirror-editor-punctuation-color) ;&quot; class=&quot;p&quot;&gt;[&lt;/span&gt;&lt;span style=&quot;box-sizing: unset;&quot; class=&quot;n&quot;&gt;HEAD&lt;/span&gt;&lt;span style=&quot;box-sizing: unset; color: var(--jp-mirror-editor-punctuation-color) ;&quot; class=&quot;p&quot;&gt;][&lt;/span&gt;&lt;span style=&quot;box-sizing: unset; color: var(--jp-mirror-editor-string-color) ;&quot; class=&quot;s1&quot;&gt;&#39;x&#39;&lt;/span&gt;&lt;span style=&quot;box-sizing: unset; color: var(--jp-mirror-editor-punctuation-color) ;&quot; class=&quot;p&quot;&gt;]&lt;/span&gt; &lt;span style=&quot;box-sizing: unset; color: var(--jp-mirror-editor-operator-color); font-weight: bold;&quot; class=&quot;o&quot;&gt;==&lt;/span&gt; &lt;span style=&quot;box-sizing: unset; color: var(--jp-mirror-editor-operator-color); font-weight: bold;&quot; class=&quot;o&quot;&gt;-&lt;/span&gt;&lt;span style=&quot;box-sizing: unset; color: var(--jp-mirror-editor-number-color) ;&quot; class=&quot;mi&quot;&gt;1&lt;/span&gt; &lt;span style=&quot;box-sizing: unset; color: var(--jp-mirror-editor-operator-color); font-weight: bold;&quot; class=&quot;ow&quot;&gt;or&lt;/span&gt; &lt;span style=&quot;box-sizing: unset;&quot; class=&quot;n&quot;&gt;wormCoords&lt;/span&gt;&lt;span style=&quot;box-sizing: unset; color: var(--jp-mirror-editor-punctuation-color) ;&quot; class=&quot;p&quot;&gt;[&lt;/span&gt;&lt;span style=&quot;box-sizing: unset;&quot; class=&quot;n&quot;&gt;HEAD&lt;/span&gt;&lt;span style=&quot;box-sizing: unset; color: var(--jp-mirror-editor-punctuation-color) ;&quot; class=&quot;p&quot;&gt;][&lt;/span&gt;&lt;span style=&quot;box-sizing: unset; color: var(--jp-mirror-editor-string-color) ;&quot; class=&quot;s1&quot;&gt;&#39;x&#39;&lt;/span&gt;&lt;span style=&quot;box-sizing: unset; color: var(--jp-mirror-editor-punctuation-color) ;&quot; class=&quot;p&quot;&gt;]&lt;/span&gt; &lt;span style=&quot;box-sizing: unset; color: var(--jp-mirror-editor-operator-color); font-weight: bold;&quot; class=&quot;o&quot;&gt;==&lt;/span&gt; &lt;span style=&quot;box-sizing: unset;&quot; class=&quot;n&quot;&gt;CELLWIDTH&lt;/span&gt; &lt;span style=&quot;box-sizing: unset; color: var(--jp-mirror-editor-operator-color); font-weight: bold;&quot; class=&quot;ow&quot;&gt;or&lt;/span&gt; &lt;span style=&quot;box-sizing: unset;&quot; class=&quot;n&quot;&gt;wormCoords&lt;/span&gt;&lt;span style=&quot;box-sizing: unset; color: var(--jp-mirror-editor-punctuation-color) ;&quot; class=&quot;p&quot;&gt;[&lt;/span&gt;&lt;span style=&quot;box-sizing: unset;&quot; class=&quot;n&quot;&gt;HEAD&lt;/span&gt;&lt;span style=&quot;box-sizing: unset; color: var(--jp-mirror-editor-punctuation-color) ;&quot; class=&quot;p&quot;&gt;][&lt;/span&gt;&lt;span style=&quot;box-sizing: unset; color: var(--jp-mirror-editor-string-color) ;&quot; class=&quot;s1&quot;&gt;&#39;y&#39;&lt;/span&gt;&lt;span style=&quot;box-sizing: unset; color: var(--jp-mirror-editor-punctuation-color) ;&quot; class=&quot;p&quot;&gt;]&lt;/span&gt; &lt;span style=&quot;box-sizing: unset; color: var(--jp-mirror-editor-operator-color); font-weight: bold;&quot; class=&quot;o&quot;&gt;==&lt;/span&gt; &lt;span style=&quot;box-sizing: unset; color: var(--jp-mirror-editor-operator-color); font-weight: bold;&quot; class=&quot;o&quot;&gt;-&lt;/span&gt;&lt;span style=&quot;box-sizing: unset; color: var(--jp-mirror-editor-number-color) ;&quot; class=&quot;mi&quot;&gt;1&lt;/span&gt; &lt;span style=&quot;box-sizing: unset; color: var(--jp-mirror-editor-operator-color); font-weight: bold;&quot; class=&quot;ow&quot;&gt;or&lt;/span&gt; &lt;span style=&quot;box-sizing: unset;&quot; class=&quot;n&quot;&gt;wormCoords&lt;/span&gt;&lt;span style=&quot;box-sizing: unset; color: var(--jp-mirror-editor-punctuation-color) ;&quot; class=&quot;p&quot;&gt;[&lt;/span&gt;&lt;span style=&quot;box-sizing: unset;&quot; class=&quot;n&quot;&gt;HEAD&lt;/span&gt;&lt;span style=&quot;box-sizing: unset; color: var(--jp-mirror-editor-punctuation-color) ;&quot; class=&quot;p&quot;&gt;][&lt;/span&gt;&lt;span style=&quot;box-sizing: unset; color: var(--jp-mirror-editor-string-color) ;&quot; class=&quot;s1&quot;&gt;&#39;y&#39;&lt;/span&gt;&lt;span style=&quot;box-sizing: unset; color: var(--jp-mirror-editor-punctuation-color) ;&quot; class=&quot;p&quot;&gt;]&lt;/span&gt; &lt;span style=&quot;box-sizing: unset; color: var(--jp-mirror-editor-operator-color); font-weight: bold;&quot; class=&quot;o&quot;&gt;==&lt;/span&gt; &lt;span style=&quot;box-sizing: unset;&quot; class=&quot;n&quot;&gt;CELLHEIGHT&lt;/span&gt;&lt;span style=&quot;box-sizing: unset; color: var(--jp-mirror-editor-punctuation-color) ;&quot; class=&quot;p&quot;&gt;:&lt;/span&gt;&lt;/pre&gt;" style="rhombus;whiteSpace=wrap;html=1;rounded=0;sketch=0;" vertex="1" parent="1">
          <mxGeometry x="210" y="920" width="80" height="80" as="geometry" />
        </mxCell>
        <mxCell id="h8E89t3zpJ7iG9NS3GkZ-31" value="" style="edgeStyle=orthogonalEdgeStyle;rounded=0;orthogonalLoop=1;jettySize=auto;html=1;" edge="1" parent="1" source="h8E89t3zpJ7iG9NS3GkZ-28" target="h8E89t3zpJ7iG9NS3GkZ-30">
          <mxGeometry relative="1" as="geometry" />
        </mxCell>
        <mxCell id="h8E89t3zpJ7iG9NS3GkZ-33" value="" style="edgeStyle=orthogonalEdgeStyle;rounded=0;orthogonalLoop=1;jettySize=auto;html=1;" edge="1" parent="1" source="h8E89t3zpJ7iG9NS3GkZ-28" target="h8E89t3zpJ7iG9NS3GkZ-32">
          <mxGeometry relative="1" as="geometry" />
        </mxCell>
        <mxCell id="h8E89t3zpJ7iG9NS3GkZ-28" value="&lt;pre style=&quot;box-sizing: unset; line-height: 16.25px; padding: 0 var(--jp-code-padding); color: rgb(33, 33, 33); font-size: 13px; text-align: start;&quot;&gt;&lt;span style=&quot;box-sizing: unset;&quot; class=&quot;n&quot;&gt;wormCoords&lt;/span&gt;&lt;span style=&quot;box-sizing: unset; color: var(--jp-mirror-editor-punctuation-color) ;&quot; class=&quot;p&quot;&gt;[&lt;/span&gt;&lt;span style=&quot;box-sizing: unset;&quot; class=&quot;n&quot;&gt;HEAD&lt;/span&gt;&lt;span style=&quot;box-sizing: unset; color: var(--jp-mirror-editor-punctuation-color) ;&quot; class=&quot;p&quot;&gt;][&lt;/span&gt;&lt;span style=&quot;box-sizing: unset; color: var(--jp-mirror-editor-string-color) ;&quot; class=&quot;s1&quot;&gt;&#39;x&#39;&lt;/span&gt;&lt;span style=&quot;box-sizing: unset; color: var(--jp-mirror-editor-punctuation-color) ;&quot; class=&quot;p&quot;&gt;]&lt;/span&gt; &lt;span style=&quot;box-sizing: unset; color: var(--jp-mirror-editor-operator-color); font-weight: bold;&quot; class=&quot;o&quot;&gt;==&lt;/span&gt; &lt;span style=&quot;box-sizing: unset;&quot; class=&quot;n&quot;&gt;apple&lt;/span&gt;&lt;span style=&quot;box-sizing: unset; color: var(--jp-mirror-editor-punctuation-color) ;&quot; class=&quot;p&quot;&gt;[&lt;/span&gt;&lt;span style=&quot;box-sizing: unset; color: var(--jp-mirror-editor-string-color) ;&quot; class=&quot;s1&quot;&gt;&#39;x&#39;&lt;/span&gt;&lt;span style=&quot;box-sizing: unset; color: var(--jp-mirror-editor-punctuation-color) ;&quot; class=&quot;p&quot;&gt;]&lt;/span&gt; &lt;span style=&quot;box-sizing: unset; color: var(--jp-mirror-editor-operator-color); font-weight: bold;&quot; class=&quot;ow&quot;&gt;and&lt;/span&gt; &lt;span style=&quot;box-sizing: unset;&quot; class=&quot;n&quot;&gt;wormCoords&lt;/span&gt;&lt;span style=&quot;box-sizing: unset; color: var(--jp-mirror-editor-punctuation-color) ;&quot; class=&quot;p&quot;&gt;[&lt;/span&gt;&lt;span style=&quot;box-sizing: unset;&quot; class=&quot;n&quot;&gt;HEAD&lt;/span&gt;&lt;span style=&quot;box-sizing: unset; color: var(--jp-mirror-editor-punctuation-color) ;&quot; class=&quot;p&quot;&gt;][&lt;/span&gt;&lt;span style=&quot;box-sizing: unset; color: var(--jp-mirror-editor-string-color) ;&quot; class=&quot;s1&quot;&gt;&#39;y&#39;&lt;/span&gt;&lt;span style=&quot;box-sizing: unset; color: var(--jp-mirror-editor-punctuation-color) ;&quot; class=&quot;p&quot;&gt;]&lt;/span&gt; &lt;span style=&quot;box-sizing: unset; color: var(--jp-mirror-editor-operator-color); font-weight: bold;&quot; class=&quot;o&quot;&gt;==&lt;/span&gt; &lt;span style=&quot;box-sizing: unset;&quot; class=&quot;n&quot;&gt;apple&lt;/span&gt;&lt;span style=&quot;box-sizing: unset; color: var(--jp-mirror-editor-punctuation-color) ;&quot; class=&quot;p&quot;&gt;[&lt;/span&gt;&lt;span style=&quot;box-sizing: unset; color: var(--jp-mirror-editor-string-color) ;&quot; class=&quot;s1&quot;&gt;&#39;y&#39;&lt;/span&gt;&lt;span style=&quot;box-sizing: unset; color: var(--jp-mirror-editor-punctuation-color) ;&quot; class=&quot;p&quot;&gt;]:&lt;/span&gt;&lt;/pre&gt;" style="rhombus;whiteSpace=wrap;html=1;rounded=0;sketch=0;" vertex="1" parent="1">
          <mxGeometry x="210" y="1080" width="80" height="80" as="geometry" />
        </mxCell>
        <mxCell id="h8E89t3zpJ7iG9NS3GkZ-30" value="getRandomLocation()" style="whiteSpace=wrap;html=1;rounded=0;sketch=0;" vertex="1" parent="1">
          <mxGeometry x="350" y="1090" width="120" height="60" as="geometry" />
        </mxCell>
        <mxCell id="h8E89t3zpJ7iG9NS3GkZ-32" value="drawGrid()" style="whiteSpace=wrap;html=1;rounded=0;sketch=0;" vertex="1" parent="1">
          <mxGeometry x="190" y="1250" width="120" height="60" as="geometry" />
        </mxCell>
        <mxCell id="h8E89t3zpJ7iG9NS3GkZ-37" value="" style="edgeStyle=orthogonalEdgeStyle;rounded=0;orthogonalLoop=1;jettySize=auto;html=1;" edge="1" parent="1" source="h8E89t3zpJ7iG9NS3GkZ-34" target="h8E89t3zpJ7iG9NS3GkZ-36">
          <mxGeometry relative="1" as="geometry" />
        </mxCell>
        <mxCell id="h8E89t3zpJ7iG9NS3GkZ-34" value="showGameOverScreen()" style="whiteSpace=wrap;html=1;rounded=0;sketch=0;" vertex="1" parent="1">
          <mxGeometry x="350" y="930" width="120" height="60" as="geometry" />
        </mxCell>
        <mxCell id="h8E89t3zpJ7iG9NS3GkZ-39" value="" style="edgeStyle=orthogonalEdgeStyle;rounded=0;orthogonalLoop=1;jettySize=auto;html=1;" edge="1" parent="1" source="h8E89t3zpJ7iG9NS3GkZ-36" target="h8E89t3zpJ7iG9NS3GkZ-38">
          <mxGeometry relative="1" as="geometry" />
        </mxCell>
        <mxCell id="h8E89t3zpJ7iG9NS3GkZ-36" value="drawPressKeyMsg()" style="whiteSpace=wrap;html=1;rounded=0;sketch=0;" vertex="1" parent="1">
          <mxGeometry x="550" y="930" width="120" height="60" as="geometry" />
        </mxCell>
        <mxCell id="h8E89t3zpJ7iG9NS3GkZ-44" value="" style="edgeStyle=orthogonalEdgeStyle;rounded=0;orthogonalLoop=1;jettySize=auto;html=1;" edge="1" parent="1" source="h8E89t3zpJ7iG9NS3GkZ-38" target="h8E89t3zpJ7iG9NS3GkZ-43">
          <mxGeometry relative="1" as="geometry" />
        </mxCell>
        <mxCell id="h8E89t3zpJ7iG9NS3GkZ-38" value="checkForKeyPress()" style="whiteSpace=wrap;html=1;rounded=0;sketch=0;" vertex="1" parent="1">
          <mxGeometry x="750" y="930" width="120" height="60" as="geometry" />
        </mxCell>
        <mxCell id="h8E89t3zpJ7iG9NS3GkZ-48" value="" style="edgeStyle=orthogonalEdgeStyle;rounded=0;orthogonalLoop=1;jettySize=auto;html=1;" edge="1" parent="1" target="h8E89t3zpJ7iG9NS3GkZ-47">
          <mxGeometry relative="1" as="geometry">
            <mxPoint x="810" y="990" as="sourcePoint" />
          </mxGeometry>
        </mxCell>
        <mxCell id="h8E89t3zpJ7iG9NS3GkZ-43" value="&lt;span style=&quot;&quot;&gt;checkForKeyPress()==True&lt;/span&gt;" style="rhombus;whiteSpace=wrap;html=1;rounded=0;sketch=0;" vertex="1" parent="1">
          <mxGeometry x="970" y="920" width="180" height="80" as="geometry" />
        </mxCell>
        <mxCell id="h8E89t3zpJ7iG9NS3GkZ-47" value="&lt;span style=&quot;&quot;&gt;checkForKeyPress()==False&lt;/span&gt;" style="rhombus;whiteSpace=wrap;html=1;rounded=0;sketch=0;" vertex="1" parent="1">
          <mxGeometry x="720" y="1070" width="180" height="80" as="geometry" />
        </mxCell>
        <mxCell id="h8E89t3zpJ7iG9NS3GkZ-49" value="" style="endArrow=classic;html=1;rounded=0;exitX=0.5;exitY=0;exitDx=0;exitDy=0;entryX=0.25;entryY=0;entryDx=0;entryDy=0;" edge="1" parent="1" source="h8E89t3zpJ7iG9NS3GkZ-43" target="h8E89t3zpJ7iG9NS3GkZ-38">
          <mxGeometry width="50" height="50" relative="1" as="geometry">
            <mxPoint x="1010" y="630" as="sourcePoint" />
            <mxPoint x="1060" y="580" as="targetPoint" />
            <Array as="points">
              <mxPoint x="1060" y="880" />
              <mxPoint x="920" y="880" />
              <mxPoint x="780" y="880" />
            </Array>
          </mxGeometry>
        </mxCell>
        <mxCell id="h8E89t3zpJ7iG9NS3GkZ-54" value="" style="curved=1;endArrow=classic;html=1;rounded=0;entryX=1;entryY=0.5;entryDx=0;entryDy=0;exitX=0.5;exitY=1;exitDx=0;exitDy=0;" edge="1" parent="1" source="h8E89t3zpJ7iG9NS3GkZ-47" target="h8E89t3zpJ7iG9NS3GkZ-9">
          <mxGeometry width="50" height="50" relative="1" as="geometry">
            <mxPoint x="310" y="410" as="sourcePoint" />
            <mxPoint x="360" y="360" as="targetPoint" />
            <Array as="points">
              <mxPoint x="520" y="1140" />
              <mxPoint x="510" y="530" />
              <mxPoint x="360" y="410" />
              <mxPoint x="310" y="360" />
            </Array>
          </mxGeometry>
        </mxCell>
        <mxCell id="h8E89t3zpJ7iG9NS3GkZ-56" value="" style="curved=1;endArrow=classic;html=1;rounded=0;entryX=0;entryY=0.5;entryDx=0;entryDy=0;exitX=0;exitY=0.5;exitDx=0;exitDy=0;" edge="1" parent="1" source="h8E89t3zpJ7iG9NS3GkZ-32" target="h8E89t3zpJ7iG9NS3GkZ-16">
          <mxGeometry width="50" height="50" relative="1" as="geometry">
            <mxPoint x="140" y="1310" as="sourcePoint" />
            <mxPoint x="190" y="1260" as="targetPoint" />
            <Array as="points">
              <mxPoint x="190" y="1310" />
              <mxPoint x="80" y="930" />
            </Array>
          </mxGeometry>
        </mxCell>
      </root>
    </mxGraphModel>
  </diagram>
</mxfile>
